# xmcd CD database file
#
# Track frame offsets:
#	26775
#	40254
#	60113
#	84040
#	98339
#	123697
#	150054
#	157315
#	166862
#	175708
#	188636
#	204676
#	229487
#
# Disc length: 3269 seconds
#
# Revision: 1
# Processed by: cddbd v1.5.2PL0 Copyright (c) Steve Scherf et al.
# Submitted via: CDex 1.51
#
DISCID=9f0b600d
DTITLE=Sons of Perdition - The Kingdom is on Fire
DYEAR=2007
DGENRE=Country
TTITLE0=This Land is Cursed
TTITLE1=The Party
TTITLE2=Anhelo
TTITLE3=There is a Judgement
TTITLE4=Blood in the Valley
TTITLE5=Burial at Sea
TTITLE6=Cannibals of Rottenburg
TTITLE7=All He Wants (Is My Blood)
TTITLE8=An End to All Flesh
TTITLE9=Death of a Shuckster
TTITLE10=The Legend of Saw Jones
TTITLE11=Fall to Your Knees
TTITLE12=I Wanna Go to Heaven
EXTD=YEAR: 2007
EXTT0=
EXTT1=
EXTT2=
EXTT3=
EXTT4=
EXTT5=
EXTT6=
EXTT7=
EXTT8=
EXTT9=
EXTT10=
EXTT11=
EXTT12=
PLAYORDER=
